<svg width="512" height="512" viewBox="0 0 512 512" fill="none" xmlns="http://www.w3.org/2000/svg">
<g clip-path="url(#clip0_16_2)">
<path fill-rule="evenodd" clip-rule="evenodd" d="M217.568 165.334C206.362 167.824 201.394 171.03 187.722 184.59L177.469 194.761L177.749 197.768C178.563 206.489 170.081 213.874 162.144 211.356C161.387 211.115 159.667 212.582 153.709 218.55L146.224 226.047L159.035 238.865C166.082 245.915 172.063 251.683 172.328 251.683C172.593 251.683 175.989 248.509 179.876 244.628L186.942 237.574L186.713 234.01C186.211 226.186 191.353 220.509 198.944 220.509C204.334 220.509 204.767 220.846 224.108 240.122C233.691 249.674 241.746 257.486 242.007 257.484C242.268 257.482 246.07 253.886 250.455 249.495L258.428 241.509L233.059 216.137L207.691 190.766L208.866 189.516C216.32 181.581 232.307 175.858 243.851 176.993L247.155 177.317L249.777 174.728C253.087 171.458 253.195 171.778 247.924 169.249C239.14 165.034 226.344 163.383 217.568 165.334ZM324.72 165.298C305.74 170.637 293.678 189.187 297.804 206.694L298.318 208.871L240.844 266.437C175.864 331.523 181.088 325.625 181.066 333.922C181.039 344.637 188.418 352.019 199.186 352.048C207.985 352.073 202.033 357.308 267.181 292.235L324.293 235.189L328.776 235.764C351.274 238.649 371.231 219.065 368.612 196.675C368.324 194.217 367.937 191.961 367.754 191.663C367.55 191.334 364.159 194.361 359.126 199.364C348.935 209.496 347.524 210.323 340.442 210.32C330.211 210.315 322.796 202.897 322.796 192.664C322.796 185.966 324.119 183.727 333.958 173.78C339.794 167.88 341.796 165.569 341.327 165.273C340.158 164.536 327.364 164.556 324.72 165.298ZM283.601 283.127L270.545 296.191L296.907 322.572C327.561 353.251 326.051 352.062 334.385 352.062C348.715 352.062 357.264 337.859 350.551 325.204C349.447 323.124 343.333 316.734 322.895 296.299L296.657 270.064L283.601 283.127ZM202.71 328.674C205.263 330.04 206.2 334.419 204.527 337.163C201.922 341.435 196.049 341.095 193.846 336.544C191.176 331.028 197.168 325.708 202.71 328.674Z" fill="#0056A6"/>
<path fill-rule="evenodd" clip-rule="evenodd" d="M256 18.1509C124.64 18.1509 18.1509 124.64 18.1509 256C18.1509 387.36 124.64 493.849 256 493.849C387.36 493.849 493.849 387.36 493.849 256C493.849 124.64 387.36 18.1509 256 18.1509ZM43.615 227.47C44.4004 230.166 45.899 234.858 47.3887 237.039C48.6274 238.853 52.4333 240.558 54.8965 241.513L87.5551 243.045C94.1569 243.355 99.5216 248.355 100.144 254.779C100.223 255.591 100.223 256.409 100.144 257.221C99.5216 263.645 94.1569 268.645 87.5551 268.955L54.8965 270.487C52.4333 271.442 48.6274 273.147 47.3887 274.961C45.899 277.143 44.4004 281.834 43.615 284.53C56.3235 380.045 131.955 455.677 227.47 468.385C230.166 467.6 234.858 466.101 237.039 464.611C238.853 463.373 240.558 459.567 241.513 457.104L243.045 424.445C243.355 417.843 248.355 412.479 254.779 411.856C255.591 411.777 256.409 411.777 257.221 411.856C263.645 412.479 268.645 417.843 268.955 424.445L270.487 457.104C271.443 459.567 273.147 463.373 274.961 464.611C277.143 466.101 281.834 467.6 284.53 468.385C380.045 455.677 455.677 380.045 468.385 284.53C467.6 281.834 466.101 277.143 464.611 274.961C463.373 273.147 459.567 271.442 457.104 270.487L424.445 268.955C417.843 268.645 412.479 263.645 411.856 257.221C411.777 256.409 411.777 255.591 411.856 254.779C412.479 248.355 417.843 243.355 424.445 243.045L457.104 241.513C459.567 240.558 463.373 238.853 464.611 237.039C466.101 234.858 467.6 230.166 468.385 227.47C455.677 131.955 380.045 56.3235 284.53 43.6151C281.834 44.4004 277.143 45.899 274.961 47.3887C273.147 48.6274 271.443 52.4333 270.487 54.8965L268.955 87.5551C268.645 94.1569 263.645 99.5216 257.221 100.144C256.409 100.223 255.591 100.223 254.779 100.144C248.355 99.5216 243.355 94.1569 243.045 87.5551L241.513 54.8965C240.558 52.4333 238.853 48.6274 237.039 47.3887C234.858 45.899 230.166 44.4004 227.47 43.615C131.955 56.3234 56.3234 131.954 43.615 227.47Z" fill="#0056A6"/>
<path fill-rule="evenodd" clip-rule="evenodd" d="M256 6.10352e-05C114.615 6.10352e-05 0 114.615 0 256C0 397.385 114.615 512 256 512C397.385 512 512 397.385 512 256C512 114.615 397.385 6.10352e-05 256 6.10352e-05ZM11.907 256C11.907 121.191 121.191 11.907 256 11.907C390.809 11.907 500.093 121.191 500.093 256C500.093 390.809 390.809 500.093 256 500.093C121.191 500.093 11.907 390.809 11.907 256Z" fill="#0056A6"/>
</g>
<defs>
<clipPath id="clip0_16_2">
<rect width="512" height="512" fill="white"/>
</clipPath>
</defs>
</svg>
